<?xml version="1.0" encoding="UTF-8"?>
<svg id="Layout" xmlns="http://www.w3.org/2000/svg" viewBox="0 0 459.37 82.15">
  <defs>
    <style>
      .cls-1 {
        fill: #e2001b;
      }

      .cls-2 {
        fill: #222b31;
      }
    </style>
  </defs>
  <g>
    <polygon class="cls-1" points="459.37 64.68 459.37 68.3 376.43 82.15 336.24 71.19 336.24 67.65 420.14 53.55 459.37 64.68"/>
    <polygon class="cls-1" points="459.37 37.92 459.37 41.54 376.43 55.39 336.24 44.43 336.24 40.88 420.14 26.79 459.37 37.92"/>
    <polygon class="cls-1" points="459.37 11.13 459.37 14.75 376.43 28.6 336.24 17.64 336.24 14.1 420.14 0 459.37 11.13"/>
  </g>
  <g>
    <path class="cls-2" d="M15.65,47.45c2.22,10.53,10.66,16.34,22.16,16.34,7.89,0,13.85-2.91,17.87-8.59l12.33,7.2c-6.79,10.11-16.9,15.1-30.33,15.1-11.22,0-20.36-3.46-27.29-10.25C3.46,60.33,0,51.6,0,41.08S3.46,22.1,10.25,15.18c6.79-7.06,15.65-10.53,26.32-10.53,10.11,0,18.42,3.6,24.93,10.66,6.51,7.06,9.83,15.79,9.83,25.9,0,1.52-.14,3.6-.55,6.23H15.65ZM56.23,35.26c-2.08-11.22-9.97-17.04-19.81-17.04-11.08,0-18.84,6.51-20.91,17.04h40.72Z"/>
    <path class="cls-2" d="M128.67,6.45h16.34l-27.01,69.25h-17.31L73.69,6.45h16.34l19.39,52.63,19.25-52.63Z"/>
    <path class="cls-2" d="M163.44,47.45c2.22,10.53,10.66,16.34,22.16,16.34,7.89,0,13.85-2.91,17.87-8.59l12.33,7.2c-6.79,10.11-16.9,15.1-30.33,15.1-11.22,0-20.36-3.46-27.29-10.25-6.93-6.93-10.39-15.65-10.39-26.18s3.46-18.98,10.25-25.9c6.79-7.06,15.65-10.53,26.32-10.53,10.11,0,18.42,3.6,24.93,10.66,6.51,7.06,9.83,15.79,9.83,25.9,0,1.52-.14,3.6-.55,6.23h-55.13ZM204.02,35.26c-2.08-11.22-9.97-17.04-19.81-17.04-11.08,0-18.84,6.51-20.91,17.04h40.72Z"/>
    <path class="cls-2" d="M239.06,66.98c-7.06-7.06-10.66-15.65-10.66-25.9s3.6-18.84,10.66-25.9c7.06-7.06,15.79-10.53,25.9-10.53s18.84,3.46,25.9,10.53c7.06,7.06,10.67,15.65,10.67,25.9s-3.6,18.84-10.67,25.9c-7.06,7.06-15.65,10.53-25.9,10.53s-18.84-3.46-25.9-10.53ZM264.96,62.96c6.09,0,11.22-2.08,15.37-6.23,4.16-4.16,6.23-9.42,6.23-15.65s-2.08-11.5-6.23-15.65c-4.16-4.16-9.28-6.23-15.37-6.23s-11.22,2.08-15.37,6.23c-4.16,4.16-6.23,9.42-6.23,15.65s2.08,11.5,6.23,15.65c4.16,4.16,9.28,6.23,15.37,6.23Z"/>
  </g>
</svg>